<svg width="28" height="28" viewBox="0 0 28 28" fill="none" xmlns="http://www.w3.org/2000/svg">
<g clip-path="url(#clip0_254_1997)">
<path d="M25.6676 19.7398V23.2398C25.669 23.5647 25.6024 23.8863 25.4722 24.184C25.3421 24.4817 25.1512 24.749 24.9117 24.9686C24.6723 25.1883 24.3896 25.3555 24.0819 25.4596C23.7741 25.5637 23.4479 25.6024 23.1243 25.5731C19.5343 25.183 16.0858 23.9563 13.056 21.9915C10.2371 20.2002 7.84721 17.8103 6.05598 14.9915C4.08429 11.9479 2.85726 8.48261 2.47431 4.87645C2.44516 4.55383 2.4835 4.22867 2.5869 3.92168C2.69029 3.61469 2.85648 3.33259 3.07487 3.09335C3.29327 2.8541 3.55909 2.66295 3.8554 2.53206C4.15172 2.40118 4.47204 2.33343 4.79598 2.33312H8.29598C8.86217 2.32755 9.41107 2.52805 9.84037 2.89724C10.2697 3.26644 10.5501 3.77914 10.6293 4.33979C10.777 5.45986 11.051 6.55964 11.446 7.61812C11.6029 8.0357 11.6369 8.48952 11.5439 8.92581C11.4508 9.36211 11.2347 9.76258 10.921 10.0798L9.43931 11.5615C11.1001 14.4823 13.5185 16.9006 16.4393 18.5615L17.921 17.0798C18.2382 16.7661 18.6387 16.5499 19.075 16.4569C19.5112 16.3638 19.9651 16.3978 20.3826 16.5548C21.4411 16.9498 22.5409 17.2237 23.661 17.3715C24.2277 17.4514 24.7453 17.7369 25.1153 18.1735C25.4853 18.6102 25.6818 19.1676 25.6676 19.7398Z" stroke="#D3363B" stroke-width="3" stroke-linecap="round" stroke-linejoin="round"/>
</g>
<defs>
<clipPath id="clip0_254_1997">
<rect width="28" height="28" fill="white"/>
</clipPath>
</defs>
</svg>
