<svg xmlns="http://www.w3.org/2000/svg" viewBox="0 0 162 71.66"><defs><style>.cls-1{fill:#fff;}</style></defs><g id="Layer_2" data-name="Layer 2"><g id="Layer_1-2" data-name="Layer 1"><path class="cls-1" d="M49.26,13.68a.73.73,0,0,0,.46-.25c-.21.06-.35.05-.46.25m0,0a.73.73,0,0,0,.46-.25c-.21.06-.35.05-.46.25m0,0a.73.73,0,0,0,.46-.25c-.21.06-.35.05-.46.25m0,0a.73.73,0,0,0,.46-.25c-.21.06-.35.05-.46.25m0,0a.73.73,0,0,0,.46-.25c-.21.06-.35.05-.46.25m0,0a.73.73,0,0,0,.46-.25c-.21.06-.35.05-.46.25m0,0a.73.73,0,0,0,.46-.25c-.21.06-.35.05-.46.25m0,0a.73.73,0,0,0,.46-.25c-.21.06-.35.05-.46.25M98.59,29.81c-.22-.28-.47-.53-.71-.81a1,1,0,0,1-.18-1.19,6.1,6.1,0,0,0,.37-.92c.22-.68.16-.86-.41-1.28-.29-.21-.57-.45-.86-.65s-.39-.38-.06-.66a2.94,2.94,0,0,0,.72-.92.86.86,0,0,0-.3-1.3c-.36-.24-.76-.44-1.14-.66s-.5-.38-.12-.81.51-.55.76-.83.16-.35-.15-.41-.79-.22-1.18-.31-.29-.17-.13-.38A5.77,5.77,0,0,0,96,17.35.89.89,0,0,0,95.32,16a8.61,8.61,0,0,1-1.74-.62c.11-.16.22-.31.32-.47.5-.78.34-1.13-.56-1.27-.3-.05-.59-.1-.88-.17-.63-.17-.76-.42-.56-1,.35-1.08.35-1.08-.73-1.31-1.35-.29-1.35-.29-1.46-1.65-.06-.69-.06-.69-.69-.38a3.12,3.12,0,0,1-.39.15c-.43.14-.63,0-.68-.43a7.23,7.23,0,0,1,0-.93A.92.92,0,0,0,87.24,7a2.67,2.67,0,0,0-1.48-.12c-.35.06-.55,0-.59-.43-.09-1.08-.61-1.5-1.7-1.52h-.56a1.14,1.14,0,0,1-1.26-1c-.07-.4-.2-.47-.54-.32-.19.08-.4.1-.59.18a2.24,2.24,0,0,1-2.18-.25A.63.63,0,0,1,78,3a3.85,3.85,0,0,0-.22-1.06c-.19-.44-.39-.52-.79-.27s-.49.35-.74.5A1,1,0,0,1,74.77,2c-.28-.28-.53-.59-.78-.88C73.25.25,73.25.25,72.3.83a3.19,3.19,0,0,1-1.66.45c-.44,0-.66-.49-1-.77L69.44.28a.57.57,0,0,0-.87,0c-.22.2-.44.41-.67.6A.82.82,0,0,1,66.69,1L65.37.13a.65.65,0,0,0-.92.14,4.51,4.51,0,0,0-.59.79c-.19.37-.41.37-.75.21A12.14,12.14,0,0,1,61.73.39c.24.35,0,.52-.16.73s-.29.41-.4.63-.35.37-.66.16a11.87,11.87,0,0,0-1.29-.77c-.61-.31-.88-.23-1.26.34-.23.34-.44.68-.64,1a1.64,1.64,0,0,1-1.1.8,4.17,4.17,0,0,1-1.86-.1c-.76-.15-.76-.15-.87.59,0,.14-.06.27-.09.41a.65.65,0,0,1-.79.58,5.91,5.91,0,0,0-2,.18,1.38,1.38,0,0,0-1.2,1.31,2.8,2.8,0,0,1-.27,1,1,1,0,0,1-1,.64,6.35,6.35,0,0,1-1.15-.31c.07.51.15,1,.19,1.47,0,.28.16.65-.12.83s-.51-.14-.75-.26c-1.11-.57-1.75-.2-1.75,1v.09c0,1.26,0,1.27-1.24,1.55s-1.5.63-1.14,1.91a.58.58,0,0,0,0,.14c.15.26.05.41-.19.57a11.21,11.21,0,0,0-2.11,1.71c-.2.21-.26.38-.06.64s.35.59.54.87.11.28-.1.39a17.6,17.6,0,0,0-1.58.92c-.84.56-.86,1.05-.12,1.72l.28.25a.57.57,0,0,1,.11.87,4.82,4.82,0,0,1-.36.43,2.81,2.81,0,0,0-.46,3.69c.3.62.31.63-.3,1-.28.18-.33.36-.16.62a1.08,1.08,0,0,1-.08,1.27,6,6,0,0,1-.9,1,7.45,7.45,0,0,1,1.58.41,1.4,1.4,0,0,0,1.48-.3c.54-.45,1.1-.87,1.67-1.29a7.23,7.23,0,0,1,.84-.51c.38-.18.49-.1.47.31s-.09.65-.09,1a1,1,0,0,0,1,1.08,4,4,0,0,0,1,0,17.8,17.8,0,0,0,3.27-1,.49.49,0,0,0,.35-.53A2.62,2.62,0,0,1,49.85,27c.34-.15.83-.2.77-.77,0,0,.07-.06.11-.09A3,3,0,0,1,54,25.36a13.25,13.25,0,0,0,2.72.87,5.26,5.26,0,0,1,2.81,1.38,6.61,6.61,0,0,0,1.12.92,7.22,7.22,0,0,1,3.61,7.7,6.82,6.82,0,0,1-.3,1.48l-.08,0-.39-.26a13.38,13.38,0,0,0-10.35-2.09,10.74,10.74,0,0,0-7.52,15.45,10.94,10.94,0,0,0,11.13,6.05,10.67,10.67,0,0,0,6.27-3,30,30,0,0,0,3.34-4.06c.39-.54.4-.55.81,0a16.8,16.8,0,0,0,3.63,3.66c3.46,2.58,7.29,3.94,11.64,3.15a10.15,10.15,0,0,0,7.79-6,10.75,10.75,0,0,0,.6-6.67,10.38,10.38,0,0,0-6.19-8,12.81,12.81,0,0,0-8.29-.43,10.9,10.9,0,0,0-4.46,2.58c-.24.21-.4.73-.78.54s-.38-.63-.47-1a.09.09,0,0,1,0-.05A10.09,10.09,0,0,1,71.22,32a6,6,0,0,1,2.12-2.33c.69-.52,1.47-.91,2.11-1.5a6.59,6.59,0,0,1,2.46-1.41c.74-.24,1.53-.3,2.27-.57a14.5,14.5,0,0,1,1.71-.49A3.43,3.43,0,0,1,85.61,27,8,8,0,0,1,86.7,29a2,2,0,0,1,.3,1.1c-.08.48,0,.61.55.54s.45.13.46.46c0,.65,0,.64.66.7a.82.82,0,0,0,.57-.17.7.7,0,0,1,.7-.12,6.25,6.25,0,0,0,4.73,0c.14,0,.23-.12.33.08a1,1,0,0,0,1.27.53c.6-.11,1.16-.4,1.78-.46l-.79-.57c-.28-.2-.23-.34.08-.43s.73-.18,1.08-.3.4-.34.17-.62M46,23.86a1.16,1.16,0,0,1-1.15,1l-.7.1a1.18,1.18,0,0,0-1,.52A1.67,1.67,0,0,1,40.34,24a2.57,2.57,0,0,1,.16-.54,8.71,8.71,0,0,1,2.63-3.19c-.28.52,0,.75.41,1A18,18,0,0,1,45.4,22.3,1.36,1.36,0,0,1,46,23.86m6-.71a1.14,1.14,0,0,1-1.1.93,1.64,1.64,0,0,0-1.21.47c-.61.47-.92.5-1.48.14a1.07,1.07,0,0,1-.43-1.31c.1-.43.19-.85.29-1.28s.07-.53-.32-.61a7.11,7.11,0,0,1,2.8.05,2.62,2.62,0,0,1,.94.4A1.11,1.11,0,0,1,52,23.15m11.65,5.52a2.47,2.47,0,0,1-1-.38l-4-2.74c-.28-.19-.32-.35-.11-.63a7.41,7.41,0,0,1,1.83-1.79c.94-.64,1.83-.12,2.74.05a1.9,1.9,0,0,1,1.66,1.94c.06.59.18,1.17.19,1.77,0,.3,0,.6-.08.89a1.05,1.05,0,0,1-1.3.89m1.75,18.71A23.44,23.44,0,0,1,60.75,53a7,7,0,0,1-3.4,1.59,5.78,5.78,0,0,1-5.16-1.88,9.28,9.28,0,0,1-2.54-5.28,11.17,11.17,0,0,1,.93-6.59,5.71,5.71,0,0,1,4-3.42c.42-.09.86-.11,1.18-.15a7.09,7.09,0,0,1,5.8,2.9,38.93,38.93,0,0,1,3,5.3c.25.49.5,1,.76,1.45a.44.44,0,0,1,0,.48m9-8.49c4.22-3.26,9.5-1.08,11,3.52a14.07,14.07,0,0,1,.66,4.27,10.65,10.65,0,0,1-.57,3.67c-.82,2.14-2.16,3.75-4.53,4.18a6.62,6.62,0,0,1-5.72-1.6,14.4,14.4,0,0,1-3-3.94c-.8-1.42-1.56-2.85-2.35-4.27a.49.49,0,0,1,0-.57,20.6,20.6,0,0,1,4.55-5.26m2.45-13.75-1.48,1-2.13,1.37A3.38,3.38,0,0,1,72,28a1,1,0,0,1-1.25-1c0-.19,0-.37,0-.56A9.7,9.7,0,0,1,71.17,24a1.06,1.06,0,0,1,.7-.74c.62-.23,1.27-.33,1.89-.51a1.46,1.46,0,0,1,1,.09A5.33,5.33,0,0,1,77,24.73c.16.22,0,.31-.12.41m6.42-.87a1.48,1.48,0,0,1-2,.12.52.52,0,0,0-.43-.09,7.55,7.55,0,0,0-1,.17,1.21,1.21,0,0,1-1.43-.63,1.17,1.17,0,0,1,0-1.48c.37-.49.77-.95,1.16-1.41.26-.3.42-.59,0-.92a7.48,7.48,0,0,1,3.72,2.4,1.34,1.34,0,0,1-.12,1.84m-2.41-4.82a2.65,2.65,0,0,1-1.56-1.88,1.61,1.61,0,0,1,2-1.91c.11,0,.24.09.31,0s0-.22-.11-.31a2.23,2.23,0,0,0-2.78-.82,8.15,8.15,0,0,0-2.44,1.65c-.34.31-.66.63-1,1a1.39,1.39,0,0,0-.08,2.1,1.25,1.25,0,0,1,1.25-1,1.39,1.39,0,0,1,1.35.91,3.13,3.13,0,0,1,0,1.89,7.52,7.52,0,0,1-.59,1.77c-.18-.61-.64-.71-1.15-.72a5.23,5.23,0,0,1-1.31-.1,1.29,1.29,0,0,1-1-1.43c0-.27.12-.35.79-.78l-.46-.39c-.81-.73-.57-.81-1.62-.08a8.68,8.68,0,0,0-3,4.13c-.34.86-.61,1.74-.94,2.6-.14.39-.21.93-.69,1s-.7-.46-.94-.81a28.31,28.31,0,0,1-1.86-3.48,17.1,17.1,0,0,0-1.69-3c-.54-.74-.63-.75-1.41-.16A1,1,0,0,1,62.66,21a1.37,1.37,0,0,1-1.24,1.11c-.52.06-1,.06-1.55.1a1,1,0,0,0-1,.9c-.54-1.39-1.06-2.65-.72-4.06a1.59,1.59,0,0,1,2.08-1.21,1.13,1.13,0,0,1,.92,1.05c0,.18.07.37.26.16a3.28,3.28,0,0,1,1-.65,13.22,13.22,0,0,0-4.67-3.64,2.23,2.23,0,0,0-2.79.8c0,.08.07.08.13.08a1.67,1.67,0,0,1,1.39,2.5A3,3,0,0,1,55,19.49a9.09,9.09,0,0,1-4.21.76c-.19,0-.38,0-.69,0,.7-.44.56-1,.44-1.57s-.31-1.34-.43-2a1.57,1.57,0,0,1,.86-1.73,1.59,1.59,0,0,1,2,0L53,15c.61.44.61.44,1.12-.11A4.17,4.17,0,0,1,55.48,14a6.54,6.54,0,0,0-1.8-.36,7,7,0,0,0-3.6.41,3.93,3.93,0,0,0-2,1.79c-.08.15-.21.32.09.37a1.05,1.05,0,0,1,.88,1.11,1.4,1.4,0,0,1-.76,1.48,6.13,6.13,0,0,1-1.25.42c-.22.06-.45.12-.67.2-.59.21-.73.41-.74,1.14a7.68,7.68,0,0,1-2-4.06,1.63,1.63,0,0,1,1-1.7,1.68,1.68,0,0,1,1.88.31.79.79,0,0,1,.28.47.25.25,0,0,0,.21.22c.16,0,.15-.11.19-.2l0-.05A4,4,0,0,1,51,12.7c.89-.09,1.78-.19,2.67-.26.25,0,.36,0,.25-.35s-.23-.81-.35-1.24a1.79,1.79,0,0,1-2.07.68,1.74,1.74,0,0,1-1.35-1.4,2.31,2.31,0,0,1,.3-1.54,8.82,8.82,0,0,1,2.64-2.83,8.1,8.1,0,0,1,.86-.59c-.24.48,0,.77.33,1,.65.47,1.3.93,1.91,1.45a1.63,1.63,0,0,1,.41,2.3,1.46,1.46,0,0,1-1.5.74c-.54,0-.54,0-.32.5a2.49,2.49,0,0,0,1.14,1.21,14.06,14.06,0,0,0,1.56.76,17.5,17.5,0,0,1,7.37,5.72c.65.86,1.29,1.72,2,2.68a40.53,40.53,0,0,0,.09-6.12,5.82,5.82,0,0,0-1.53-3.07,19.6,19.6,0,0,0-1.89-1.76c-.07,0-.12-.16-.23-.1a.2.2,0,0,0-.11.24,1.44,1.44,0,0,1-.88,1.68A2.1,2.1,0,0,1,60,12.27,3.28,3.28,0,0,1,58.75,10,11.26,11.26,0,0,1,59,6.12L59.12,6a.56.56,0,0,0,.64.57c.72,0,1.44,0,2.16,0,.36,0,.72,0,1.08,0A2,2,0,0,1,64.91,8.5a.9.9,0,0,1-.31.79L64,9.82a10,10,0,0,1,3,1.88c0-.59.08-1.11.12-1.63a13.93,13.93,0,0,1,.44-2.87c.09-.3,0-.32-.26-.29s-.5,0-.75.07a1,1,0,0,1-1.14-.53,1.4,1.4,0,0,1-.08-1.51A2.63,2.63,0,0,1,66,4.26c.29-.23.6-.45.89-.69a.91.91,0,0,0,.37-1.19c.08,0,.13,0,.16,0a9,9,0,0,1,2.34,1.71,4.63,4.63,0,0,1,.57.75,1.64,1.64,0,0,1-.13,2.11A1.67,1.67,0,0,1,68,7.15a9.4,9.4,0,0,0,.73,4.79c1-.58,1.91-1.24,2.94-1.75.21-.1.16-.18,0-.29s-.48-.4-.71-.61a1,1,0,0,1-.33-1.07,2.38,2.38,0,0,1,2.55-2.09c1,0,2,.07,3,.08.86,0,1-.07,1.15-.87A11,11,0,0,1,77.58,11a2.93,2.93,0,0,1-2.35,2.24,2.3,2.3,0,0,1-2.57-1.5,1,1,0,0,1,0-.78c-2.25.91-3.71,4.44-3.22,7.76,2-.47,11.07-6.2,12-7.52a.81.81,0,0,0-.59-.06,1.15,1.15,0,0,1-1.2-.79,1.31,1.31,0,0,1,.15-1.53,6.22,6.22,0,0,1,1.12-.93c.31-.22.6-.45.9-.68a.54.54,0,0,0,.2-.69s.08,0,.1,0A8.47,8.47,0,0,1,84.93,9.2a3,3,0,0,1,.29.69,1.46,1.46,0,0,1-.46,1.62,1.58,1.58,0,0,1-1.8.27.44.44,0,0,0-.66.12,6.09,6.09,0,0,0-.7.78l2.49.2a15.62,15.62,0,0,1,2.36.35,3.91,3.91,0,0,1,2.74,2.3c.1.23.19.47.27.7l0,0a.87.87,0,0,1,1-.4,1.1,1.1,0,0,1,.91,1,3.38,3.38,0,0,1,0,.84c0,.23-.07.47-.08.7,0,.46.12.62.58.73,0,0,.06.08,0,.12a8.18,8.18,0,0,1-2.49.42,2.4,2.4,0,0,1-1.28-.35,1.23,1.23,0,0,1-.5-1.39,1.16,1.16,0,0,1,1.11-.95h0c-.58-2.21-2.34-3.27-4.68-3.33a11.1,11.1,0,0,0-3.14.4,4.14,4.14,0,0,1,1.53,1.11c.14.18.26,0,.34-.08a1.61,1.61,0,0,1,2.12-.06,1.63,1.63,0,0,1,.87,1.9c-.14.73-.33,1.46-.48,2.2a.93.93,0,0,0,.58,1.21,9.94,9.94,0,0,1-5-.77M89.6,26A1.87,1.87,0,0,1,87.76,27a1.74,1.74,0,0,1-1.46-2.37.51.51,0,0,0,0-.4c-.19-.38-.36-.77-.58-1.13a1.19,1.19,0,0,1,.1-1.44A1.46,1.46,0,0,1,87.26,21a6.07,6.07,0,0,1,1.48.58l.81.38c.44.21.88.41,1.17-.25A9.24,9.24,0,0,1,89.6,26m6.64,2.93a1.62,1.62,0,0,1-2,.56.51.51,0,0,0-.44,0c-.39.18-.78.34-1.14.55a1.14,1.14,0,0,1-1.43-.11,1.43,1.43,0,0,1-.67-1.49A6.46,6.46,0,0,1,91.19,27c.18-.37.33-.74.52-1.11a.48.48,0,0,0-.21-.74c0-.1.14-.07.2-.11a9.7,9.7,0,0,1,3.39.87,2.9,2.9,0,0,1,1.29,1.06,1.64,1.64,0,0,1-.14,2m-47-15.22a.73.73,0,0,0,.46-.25c-.21.06-.35.05-.46.25m0,0a.73.73,0,0,0,.46-.25c-.21.06-.35.05-.46.25m0,0a.73.73,0,0,0,.46-.25c-.21.06-.35.05-.46.25m0,0a.73.73,0,0,0,.46-.25c-.21.06-.35.05-.46.25m0,0a.73.73,0,0,0,.46-.25c-.21.06-.35.05-.46.25m0,0a.73.73,0,0,0,.46-.25c-.21.06-.35.05-.46.25m0,0a.73.73,0,0,0,.46-.25c-.21.06-.35.05-.46.25m0,0a.73.73,0,0,0,.46-.25c-.21.06-.35.05-.46.25m0,0a.73.73,0,0,0,.46-.25c-.21.06-.35.05-.46.25"></path><path class="cls-1" d="M23.19,56.92H18c-.21,0-.44.07-.42-.3s.24-.25.41-.26A6.46,6.46,0,0,0,19,56.28a1.64,1.64,0,0,0,1.5-1.65c0-.44,0-.88,0-1.32V38.64q0-.45,0-.9A1.67,1.67,0,0,0,19.07,36,6.35,6.35,0,0,0,18,35.94c-.19,0-.45.12-.45-.27s.24-.29.43-.29c2.68,0,5.36,0,8.05,0,.78,0,1.56,0,2.35,0,.18,0,.45-.13.45.27s-.28.29-.47.29a5,5,0,0,0-1.17.1,1.63,1.63,0,0,0-1.36,1.58c-.13,2.42,0,4.83-.07,7.25,0,.22.06.3.29.29h7c.17,0,.3,0,.29-.24,0-2.43.09-4.86-.07-7.29A1.59,1.59,0,0,0,31.81,36a4.7,4.7,0,0,0-1.12-.08c-.23,0-.38,0-.37-.3s.18-.27.36-.27H41.17c.2,0,.4-.06.39.28s-.2.29-.39.28a4.15,4.15,0,0,0-1.49.18,1.54,1.54,0,0,0-1.07,1.36,9.45,9.45,0,0,0-.07,1.07q0,7.62,0,15.24a6.55,6.55,0,0,0,.05.89A1.64,1.64,0,0,0,40,56.27a5.63,5.63,0,0,0,1.08.09c.18,0,.44-.12.44.27s-.24.29-.43.29h-10a4.47,4.47,0,0,0-.52,0c-.25,0-.32-.07-.32-.31s.13-.27.32-.27a4.17,4.17,0,0,0,1.53-.17,1.54,1.54,0,0,0,1.1-1.38c.15-1.38.06-2.76.08-4.14,0-1.22,0-2.45,0-3.67,0-.31,0-.43-.4-.42H26.14c-.28,0-.39,0-.38.36,0,2.47,0,5,0,7.43a1.87,1.87,0,0,0,2,2,4.7,4.7,0,0,0,.75,0c.19,0,.32,0,.32.27s-.09.31-.32.31H23.19"></path><path class="cls-1" d="M98.93,39.48V53.56a2.58,2.58,0,0,0,2.83,2.8c.15,0,.4-.15.46.14s0,.44-.33.43c-2.32,0-4.64,0-7,0-.21,0-.35,0-.35-.29s.13-.28.34-.3c2.11-.15,2.81-.87,2.82-3,0-5,0-10.07,0-15.1a.74.74,0,0,0-.2-.55c-.17-.19-.32-.38-.48-.58A2.73,2.73,0,0,0,94.92,36c-.23,0-.33-.05-.33-.31s.16-.28.35-.28q3.48,0,7,0a.7.7,0,0,1,.6.36q4.95,6.26,9.91,12.49c.1.13.22.26.33.39,0,0,.07-.06.07-.08,0-3.31.06-6.61,0-9.92a6,6,0,0,0-.11-.84A2.09,2.09,0,0,0,110.84,36,3.84,3.84,0,0,0,110,36c-.22,0-.31-.06-.3-.29s.07-.29.29-.29h6.54c.14,0,.29,0,.28.19s.06.38-.24.41-.53.09-.79.14A1.94,1.94,0,0,0,114.08,38c0,.5-.08,1-.08,1.5q0,8.67,0,17.35c0,.17.16.44-.13.52a.56.56,0,0,1-.64-.26L100.64,41.59l-1.71-2.11"></path><path class="cls-1" d="M0,53.39c0-1.16,0-2.32,0-3.48,0-.17-.19-.45.18-.52s.42.13.5.43A8.28,8.28,0,0,0,4,54.94a5.86,5.86,0,0,0,5,1,3.06,3.06,0,0,0,1.41-5.32,10.23,10.23,0,0,0-2.67-1.74c-1.4-.72-2.84-1.39-4.17-2.25a9.42,9.42,0,0,1-1.68-1.34,5.76,5.76,0,0,1-1.58-6A6,6,0,0,1,4.93,35.1a7.65,7.65,0,0,1,5.21.59,10.52,10.52,0,0,0,1.51.64.9.9,0,0,0,1.27-.66,5.54,5.54,0,0,0,.14-.55c0-.2.17-.21.34-.22s.2.14.2.28l.18,6.58c0,.15,0,.32-.22.3s-.45.09-.5-.26a5.63,5.63,0,0,0-.41-1.44,6.44,6.44,0,0,0-5.08-4.18,3.75,3.75,0,0,0-2.95.65,2.55,2.55,0,0,0-.36,4,8.6,8.6,0,0,0,2.38,1.67c1.35.72,2.75,1.34,4.08,2.11a17.21,17.21,0,0,1,1.83,1.23A6.17,6.17,0,0,1,12.36,56a8.17,8.17,0,0,1-7.66.9c-.56-.19-1.1-.44-1.67-.63a1.7,1.7,0,0,0-2.26.85c-.06.1-.07.24-.21.29C.24,57.5,0,57.36,0,57c0-1.2,0-2.41,0-3.62"></path><path class="cls-1" d="M132.38,46.78a1.31,1.31,0,0,0,.12-.15l4.27-7.19a7.56,7.56,0,0,0,.85-1.93.91.91,0,0,0-.53-1.19,3.74,3.74,0,0,0-1.5-.35c-.25,0-.31-.12-.31-.35s.17-.25.34-.25h5.93c.15,0,.32-.05.31.21s0,.37-.26.4a3.15,3.15,0,0,0-2.22,1.58c-1.31,1.93-2.41,4-3.63,6-.85,1.39-1.66,2.8-2.5,4.2a1.09,1.09,0,0,0-.18.61c0,1.85,0,3.7,0,5.55,0,.16,0,.32,0,.47,0,1.53,1,1.9,2,2a9.91,9.91,0,0,0,1.09,0c.21,0,.38,0,.37.31s-.17.26-.36.26H124.86c-.19,0-.44.1-.43-.29s.25-.26.44-.27a8.4,8.4,0,0,0,1.5-.09,1.63,1.63,0,0,0,1.46-1.63c.15-1.83,0-3.67.08-5.5a1,1,0,0,0-.14-.44c-1.84-3.34-3.67-6.7-5.51-10-.29-.53-.64-1-1-1.55A2.36,2.36,0,0,0,119.4,36c-.25,0-.34-.08-.34-.35s.18-.23.34-.23h9.65c.22,0,.33,0,.34.3s-.18.28-.37.27a3.51,3.51,0,0,0-1.07.11.83.83,0,0,0-.62,1.19,13.32,13.32,0,0,0,1,2.17l3.87,7.08a2.29,2.29,0,0,0,.18.29"></path><path class="cls-1" d="M161.66,56.3A2.23,2.23,0,0,1,160,55.15a13.23,13.23,0,0,1-.93-1.74l-8-18.11c-.07-.16-.06-.4-.33-.4s-.25.25-.32.4c-1.8,4-3.59,8-5.4,12-1,2.3-2,4.66-3.17,6.9a3.52,3.52,0,0,1-2.46,2.07c-.28.06-.2.27-.21.44s.17.18.29.18H146c.15,0,.33,0,.32-.22s0-.35-.27-.37a11,11,0,0,1-1.3-.18,1.45,1.45,0,0,1-1.26-1.61,3.18,3.18,0,0,1,.09-.69,22.36,22.36,0,0,1,1.2-3c.09-.22.26-.18.42-.18H152a.47.47,0,0,1,.52.35c.32.79.69,1.57,1,2.37a7.32,7.32,0,0,1,.56,1.59.94.94,0,0,1-.67,1.14,4.36,4.36,0,0,1-1.44.2c-.21,0-.43-.07-.41.3s.24.26.42.26h9.59c.14,0,.36.12.38-.19s-.05-.4-.33-.43m-16.27-6.73,3.3-7.39,3.2,7.39Z"></path><path class="cls-1" d="M2.7,62.67v3.74H4.44a1.27,1.27,0,0,0,.87-.26,1.81,1.81,0,0,0,.37-1.05h.26v3.22H5.68a1.93,1.93,0,0,0-.15-.81.89.89,0,0,0-.38-.39A1.5,1.5,0,0,0,4.44,67H2.7v3a2.8,2.8,0,0,0,.1,1,.56.56,0,0,0,.29.3,1.37,1.37,0,0,0,.65.17h.34v.26H0V71.4H.34a1,1,0,0,0,.85-.34A2.16,2.16,0,0,0,1.36,70V63.84a3.27,3.27,0,0,0-.09-1,.69.69,0,0,0-.29-.3,1.33,1.33,0,0,0-.64-.17H0v-.26H7.07l.09,2.09H6.92a2.74,2.74,0,0,0-.43-1,1.53,1.53,0,0,0-.59-.45,3.29,3.29,0,0,0-1.1-.14Z"></path><path class="cls-1" d="M18.38,68.48H14.7L14.06,70a2.3,2.3,0,0,0-.24.82.49.49,0,0,0,.21.39,1.85,1.85,0,0,0,.89.21v.26h-3V71.4a1.69,1.69,0,0,0,.77-.27,4.33,4.33,0,0,0,.79-1.37l3.34-7.82h.25l3.31,7.9a3.46,3.46,0,0,0,.72,1.24,1.46,1.46,0,0,0,.91.32v.26H18.27V71.4a1.42,1.42,0,0,0,.77-.19.5.5,0,0,0,.2-.39,3.12,3.12,0,0,0-.28-1ZM18.19,68l-1.62-3.84L14.92,68Z"></path><path class="cls-1" d="M37,71.66H34.46l-3.21-4.45-.58,0h-.2l-.22,0V70a1.93,1.93,0,0,0,.2,1.11,1,1,0,0,0,.8.31h.37v.26H27.55V71.4h.35a1,1,0,0,0,.87-.39,2.39,2.39,0,0,0,.14-1V63.84a2,2,0,0,0-.19-1.12,1.08,1.08,0,0,0-.82-.31h-.35v-.26H31a8.53,8.53,0,0,1,2.23.22,2.53,2.53,0,0,1,1.22.82A2.06,2.06,0,0,1,35,64.6a2.23,2.23,0,0,1-.57,1.52,3.24,3.24,0,0,1-1.77.91l2,2.73A5,5,0,0,0,35.74,71,3,3,0,0,0,37,71.4Zm-6.75-4.89h.39a3.09,3.09,0,0,0,2-.59,1.86,1.86,0,0,0,.7-1.5,2,2,0,0,0-.56-1.45,2,2,0,0,0-1.48-.55,6,6,0,0,0-1.1.13Z"></path><path class="cls-1" d="M47.88,71.66l-3.68-8V70a1.89,1.89,0,0,0,.19,1.09,1,1,0,0,0,.82.3h.34v.26H42.24V71.4h.34a1,1,0,0,0,.85-.37,2.13,2.13,0,0,0,.16-1V63.8a2.24,2.24,0,0,0-.14-.91.77.77,0,0,0-.37-.34,1.9,1.9,0,0,0-.84-.14v-.26h2.69l3.45,7.44,3.39-7.44h2.69v.26h-.33a1,1,0,0,0-.86.37,2.17,2.17,0,0,0-.15,1V70a1.89,1.89,0,0,0,.19,1.09,1,1,0,0,0,.82.3h.33v.26h-4V71.4h.33a1,1,0,0,0,.86-.37,2.17,2.17,0,0,0,.15-1V63.66l-3.66,8Z"></path><path class="cls-1" d="M78.3,71.66H75.77l-3.22-4.45-.58,0h-.2l-.22,0V70a1.93,1.93,0,0,0,.2,1.11,1,1,0,0,0,.8.31h.37v.26H68.85V71.4h.36a1,1,0,0,0,.86-.39,2.19,2.19,0,0,0,.15-1V63.84a2,2,0,0,0-.2-1.12,1,1,0,0,0-.81-.31h-.36v-.26h3.46a8.53,8.53,0,0,1,2.23.22,2.53,2.53,0,0,1,1.22.82,2.07,2.07,0,0,1,.51,1.41,2.24,2.24,0,0,1-.58,1.52,3.24,3.24,0,0,1-1.77.91l2,2.73A5,5,0,0,0,77,71a3.07,3.07,0,0,0,1.26.39Zm-6.75-4.89H72a3.11,3.11,0,0,0,2-.59,1.88,1.88,0,0,0,.69-1.5,1.91,1.91,0,0,0-2-2,6.09,6.09,0,0,0-1.1.13Z"></path><path class="cls-1" d="M86.3,62.67v3.76h2.09a1.67,1.67,0,0,0,1.09-.25,1.58,1.58,0,0,0,.41-1.13h.25v3.31h-.25a4,4,0,0,0-.2-.89.84.84,0,0,0-.42-.39,2.14,2.14,0,0,0-.88-.14H86.3v3.13a2.75,2.75,0,0,0,.06.77.43.43,0,0,0,.2.22,1.23,1.23,0,0,0,.53.08H88.7A4.56,4.56,0,0,0,89.87,71a1.78,1.78,0,0,0,.7-.44,5.36,5.36,0,0,0,.89-1.31h.28l-.82,2.38H83.6V71.4h.33a1.29,1.29,0,0,0,.64-.16.64.64,0,0,0,.31-.34A3.44,3.44,0,0,0,85,70V63.81a2.07,2.07,0,0,0-.18-1.12,1.13,1.13,0,0,0-.85-.28H83.6v-.26h7.32L91,64.24h-.28a3.19,3.19,0,0,0-.32-1,1.12,1.12,0,0,0-.53-.42,3.18,3.18,0,0,0-1-.11Z"></path><path class="cls-1" d="M105.5,62.15l.11,2.23h-.27a2.65,2.65,0,0,0-.21-.84,1.4,1.4,0,0,0-.58-.6,2,2,0,0,0-1-.19h-1.34V70a2,2,0,0,0,.19,1.09,1,1,0,0,0,.82.3h.33v.26h-4V71.4h.34a.94.94,0,0,0,.85-.37,2,2,0,0,0,.16-1V62.75H99.78a3,3,0,0,0-1,.1,1.31,1.31,0,0,0-.62.51,2,2,0,0,0-.31,1h-.27l.11-2.23Z"></path><path class="cls-1" d="M120.79,71.66h-2.54L115,67.21l-.59,0h-.19l-.22,0V70a1.85,1.85,0,0,0,.2,1.11,1,1,0,0,0,.8.31h.37v.26h-4.08V71.4h.36a1,1,0,0,0,.86-.39,2.19,2.19,0,0,0,.15-1V63.84a1.88,1.88,0,0,0-.2-1.12,1,1,0,0,0-.81-.31h-.36v-.26h3.47a8.53,8.53,0,0,1,2.23.22,2.53,2.53,0,0,1,1.22.82,2.11,2.11,0,0,1,.5,1.41,2.23,2.23,0,0,1-.57,1.52,3.24,3.24,0,0,1-1.77.91l2,2.73A5,5,0,0,0,119.53,71a3,3,0,0,0,1.26.39ZM114,66.77h.39a3.09,3.09,0,0,0,2-.59,1.88,1.88,0,0,0,.69-1.5,2,2,0,0,0-.55-1.45,2,2,0,0,0-1.48-.55,6,6,0,0,0-1.1.13Z"></path><path class="cls-1" d="M128.79,62.67v3.76h2.09a1.64,1.64,0,0,0,1.08-.25,1.54,1.54,0,0,0,.41-1.13h.26v3.31h-.26a3.07,3.07,0,0,0-.2-.89.82.82,0,0,0-.41-.39,2.17,2.17,0,0,0-.88-.14h-2.09v3.13a2.75,2.75,0,0,0,.06.77.41.41,0,0,0,.19.22,1.23,1.23,0,0,0,.53.08h1.62a4.67,4.67,0,0,0,1.17-.11,1.86,1.86,0,0,0,.7-.44,5.66,5.66,0,0,0,.89-1.31h.28l-.82,2.38h-7.33V71.4h.34a1.32,1.32,0,0,0,.64-.16.59.59,0,0,0,.3-.34,3.06,3.06,0,0,0,.08-.92V63.81a2.07,2.07,0,0,0-.18-1.12,1.12,1.12,0,0,0-.84-.28h-.34v-.26h7.33l.1,2.09h-.27a3.4,3.4,0,0,0-.33-1,1,1,0,0,0-.53-.42,3.06,3.06,0,0,0-1-.11Z"></path><path class="cls-1" d="M146.25,68.48h-3.68l-.65,1.5a2.45,2.45,0,0,0-.23.82.5.5,0,0,0,.2.39,1.93,1.93,0,0,0,.9.21v.26h-3V71.4a1.69,1.69,0,0,0,.78-.27,4.53,4.53,0,0,0,.79-1.37l3.34-7.82H145l3.3,7.9a3.59,3.59,0,0,0,.73,1.24,1.46,1.46,0,0,0,.91.32v.26h-3.75V71.4a1.35,1.35,0,0,0,.76-.19.47.47,0,0,0,.2-.39,3,3,0,0,0-.27-1Zm-.2-.52-1.61-3.84L142.79,68Z"></path><path class="cls-1" d="M161.89,62.15l.11,2.23h-.27a2.65,2.65,0,0,0-.21-.84,1.46,1.46,0,0,0-.58-.6,2,2,0,0,0-.95-.19h-1.34V70a2,2,0,0,0,.19,1.09,1,1,0,0,0,.82.3H160v.26h-4V71.4h.34a1,1,0,0,0,.85-.37,2.13,2.13,0,0,0,.16-1V62.75h-1.15a3,3,0,0,0-.94.1,1.33,1.33,0,0,0-.63.51,2.05,2.05,0,0,0-.3,1H154l.11-2.23Z"></path></g></g></svg>