<svg width="24" height="24" viewBox="0 0 24 24" fill="none" xmlns="http://www.w3.org/2000/svg">
<path d="M19.5 3.75H17.25V3C17.25 2.80109 17.171 2.61032 17.0303 2.46967C16.8897 2.32902 16.6989 2.25 16.5 2.25C16.3011 2.25 16.1103 2.32902 15.9697 2.46967C15.829 2.61032 15.75 2.80109 15.75 3V3.75H8.25V3C8.25 2.80109 8.17098 2.61032 8.03033 2.46967C7.88968 2.32902 7.69891 2.25 7.5 2.25C7.30109 2.25 7.11032 2.32902 6.96967 2.46967C6.82902 2.61032 6.75 2.80109 6.75 3V3.75H4.5C4.10218 3.75 3.72064 3.90804 3.43934 4.18934C3.15804 4.47064 3 4.85218 3 5.25V20.25C3 20.6478 3.15804 21.0294 3.43934 21.3107C3.72064 21.592 4.10218 21.75 4.5 21.75H19.5C19.8978 21.75 20.2794 21.592 20.5607 21.3107C20.842 21.0294 21 20.6478 21 20.25V5.25C21 4.85218 20.842 4.47064 20.5607 4.18934C20.2794 3.90804 19.8978 3.75 19.5 3.75ZM6.75 5.25V6C6.75 6.19891 6.82902 6.38968 6.96967 6.53033C7.11032 6.67098 7.30109 6.75 7.5 6.75C7.69891 6.75 7.88968 6.67098 8.03033 6.53033C8.17098 6.38968 8.25 6.19891 8.25 6V5.25H15.75V6C15.75 6.19891 15.829 6.38968 15.9697 6.53033C16.1103 6.67098 16.3011 6.75 16.5 6.75C16.6989 6.75 16.8897 6.67098 17.0303 6.53033C17.171 6.38968 17.25 6.19891 17.25 6V5.25H19.5V8.25H4.5V5.25H6.75ZM19.5 20.25H4.5V9.75H19.5V20.25ZM15.9056 12.2194C15.9754 12.289 16.0307 12.3717 16.0684 12.4628C16.1062 12.5538 16.1256 12.6514 16.1256 12.75C16.1256 12.8486 16.1062 12.9462 16.0684 13.0372C16.0307 13.1283 15.9754 13.211 15.9056 13.2806L11.4056 17.7806C11.336 17.8504 11.2533 17.9057 11.1622 17.9434C11.0712 17.9812 10.9736 18.0006 10.875 18.0006C10.7764 18.0006 10.6788 17.9812 10.5878 17.9434C10.4967 17.9057 10.414 17.8504 10.3444 17.7806L8.09437 15.5306C7.95364 15.3899 7.87458 15.199 7.87458 15C7.87458 14.801 7.95364 14.6101 8.09437 14.4694C8.23511 14.3286 8.42598 14.2496 8.625 14.2496C8.82402 14.2496 9.01489 14.3286 9.15563 14.4694L10.875 16.1897L14.8444 12.2194C14.914 12.1496 14.9967 12.0943 15.0878 12.0566C15.1788 12.0188 15.2764 11.9994 15.375 11.9994C15.4736 11.9994 15.5712 12.0188 15.6622 12.0566C15.7533 12.0943 15.836 12.1496 15.9056 12.2194Z" fill="#D3363B"/>
</svg>
