<svg width="32" height="32" viewBox="0 0 32 32" fill="none" xmlns="http://www.w3.org/2000/svg">
<path d="M27.7345 10.3945C29.1222 13.2968 29.3856 16.6102 28.474 19.6952C27.5623 22.7803 25.5403 25.4183 22.798 27.1001C20.0557 28.782 16.7876 29.3884 13.6245 28.8024C10.4614 28.2164 7.62749 26.4795 5.6697 23.9269C3.71191 21.3743 2.76905 18.187 3.02308 14.9801C3.27711 11.7732 4.71003 8.77405 7.04529 6.56152C9.38054 4.349 12.4526 3.07992 15.6685 2.99922C18.8844 2.91851 22.0163 4.03191 24.4595 6.12452L27.2933 3.28952C27.4809 3.10188 27.7354 2.99647 28.0008 2.99647C28.2662 2.99647 28.5207 3.10188 28.7083 3.28952C28.8959 3.47716 29.0014 3.73166 29.0014 3.99702C29.0014 4.26238 28.8959 4.51688 28.7083 4.70452L16.7083 16.7045C16.5207 16.8922 16.2662 16.9976 16.0008 16.9976C15.7354 16.9976 15.4809 16.8922 15.2933 16.7045C15.1057 16.5169 15.0002 16.2624 15.0002 15.997C15.0002 15.7317 15.1057 15.4772 15.2933 15.2895L18.7583 11.8245C17.8192 11.2035 16.6981 10.9175 15.5763 11.013C14.4545 11.1084 13.3977 11.5796 12.5771 12.3504C11.7564 13.1212 11.2199 14.1464 11.0544 15.26C10.8889 16.3736 11.1041 17.5105 11.6652 18.4866C12.2262 19.4627 13.1003 20.2209 14.1459 20.6384C15.1914 21.0559 16.3473 21.1084 17.4264 20.7872C18.5055 20.4661 19.4446 19.7901 20.0917 18.8688C20.7388 17.9475 21.056 16.8348 20.992 15.7108C20.9847 15.5794 21.0032 15.448 21.0466 15.3238C21.0901 15.1997 21.1575 15.0853 21.2452 14.9872C21.3328 14.8891 21.4389 14.8092 21.5574 14.7522C21.6759 14.6951 21.8045 14.6619 21.9358 14.6545C22.201 14.6396 22.4613 14.7307 22.6594 14.9076C22.7575 14.9953 22.8373 15.1014 22.8944 15.2199C22.9515 15.3384 22.9847 15.4669 22.992 15.5983C23.0832 17.1892 22.6288 18.7637 21.7039 20.0614C20.779 21.3592 19.439 22.3024 17.9054 22.7354C16.3717 23.1684 14.7363 23.0651 13.2693 22.4426C11.8023 21.8202 10.5916 20.7158 9.83732 19.312C9.08302 17.9083 8.83029 16.2892 9.12087 14.7223C9.41146 13.1554 10.228 11.7346 11.4355 10.6947C12.643 9.65474 14.1691 9.05794 15.7618 9.00291C17.3544 8.94788 18.9182 9.43791 20.1945 10.392L23.0383 7.54827C20.9543 5.81802 18.3045 4.91872 15.5979 5.02312C12.8912 5.12751 10.3186 6.22822 8.37403 8.11385C6.42949 9.99948 5.25018 12.5371 5.0626 15.2392C4.87502 17.9414 5.6924 20.6176 7.35774 22.7538C9.02309 24.89 11.419 26.3356 14.0852 26.813C16.7515 27.2904 19.5001 26.7658 21.8032 25.3401C24.1063 23.9144 25.8014 21.6881 26.563 19.0887C27.3247 16.4893 27.099 13.7002 25.9295 11.257C25.8152 11.0177 25.8006 10.7427 25.8889 10.4925C25.9773 10.2424 26.1614 10.0376 26.4008 9.92327C26.6402 9.8089 26.9151 9.79429 27.1653 9.88267C27.4154 9.97104 27.6202 10.1552 27.7345 10.3945Z" fill="white"/>
</svg>
