<svg width="32" height="33" viewBox="0 0 32 33" fill="none" xmlns="http://www.w3.org/2000/svg">
<g clip-path="url(#clip0_208_1853)">
<path d="M22.8813 7.5H9.00004C7.78236 7.49999 6.57734 7.74709 5.45792 8.22633C4.33851 8.70556 3.32799 9.40697 2.48753 10.2881C1.64707 11.1692 0.994153 12.2117 0.568306 13.3525C0.14246 14.4933 -0.047461 15.7087 0.0100408 16.925C0.221291 21.5112 3.98004 25.2737 8.56629 25.49C10.5475 25.5825 12.5663 24.7525 14.7388 22.9525C15.0947 22.6582 15.542 22.4972 16.0038 22.4972C16.4656 22.4972 16.9129 22.6582 17.2688 22.9525C18.59 24.0487 20.625 25.5 23 25.5C24.192 25.5001 25.3721 25.2634 26.4718 24.8037C27.5716 24.344 28.5691 23.6705 29.4064 22.8221C30.2437 21.9738 30.9041 20.9676 31.3493 19.8619C31.7946 18.7562 32.0158 17.5731 32 16.3813C31.9363 11.4838 27.845 7.5 22.8813 7.5ZM27.9825 21.4175C27.3329 22.0793 26.5574 22.6045 25.7017 22.9622C24.846 23.3198 23.9274 23.5027 23 23.5C21.265 23.5 19.625 22.3113 18.5438 21.4163C17.8289 20.8256 16.9305 20.5025 16.0032 20.5025C15.0758 20.5025 14.1774 20.8256 13.4625 21.4163C11.69 22.875 10.1175 23.5613 8.66004 23.4925C6.92506 23.3982 5.28614 22.666 4.0582 21.4367C2.83026 20.2073 2.09993 18.5676 2.00754 16.8325C1.96254 15.8863 2.11007 14.9408 2.44118 14.0533C2.77229 13.1657 3.28009 12.3546 3.93384 11.6691C4.58759 10.9836 5.37367 10.4378 6.2445 10.065C7.11532 9.69216 8.05276 9.49995 9.00004 9.5H22.8813C26.7563 9.5 29.95 12.5988 30 16.4062C30.0148 17.3339 29.844 18.2551 29.4975 19.1157C29.151 19.9763 28.6359 20.7589 27.9825 21.4175ZM23 12.5C23 12.7652 22.8947 13.0196 22.7071 13.2071C22.5196 13.3946 22.2653 13.5 22 13.5H10C9.73482 13.5 9.48047 13.3946 9.29293 13.2071C9.1054 13.0196 9.00004 12.7652 9.00004 12.5C9.00004 12.2348 9.1054 11.9804 9.29293 11.7929C9.48047 11.6054 9.73482 11.5 10 11.5H22C22.2653 11.5 22.5196 11.6054 22.7071 11.7929C22.8947 11.9804 23 12.2348 23 12.5Z" fill="white"/>
</g>
<defs>
<clipPath id="clip0_208_1853">
<rect width="32" height="32" fill="white" transform="translate(0 0.5)"/>
</clipPath>
</defs>
</svg>
