<svg width="36" height="36" viewBox="0 0 36 36" fill="none" xmlns="http://www.w3.org/2000/svg">
<g clip-path="url(#clip0_217_3907)">
<path d="M8.55 3.88333C7.92778 3.88333 7.42222 4.09722 7.03333 4.525C6.64444 4.95278 6.45 5.45833 6.45 6.04167C6.45 6.625 6.64444 7.13056 7.03333 7.55833C7.42222 7.98611 7.92778 8.2 8.55 8.2C9.17222 8.2 9.69722 7.98611 10.125 7.55833C10.5528 7.13056 10.7667 6.625 10.7667 6.04167C10.7667 5.45833 10.5528 4.95278 10.125 4.525C9.69722 4.09722 9.17222 3.88333 8.55 3.88333ZM8.55 7.15C8.23889 7.15 7.96667 7.05278 7.73333 6.85833C7.5 6.66389 7.38333 6.41111 7.38333 6.1C7.38333 5.78889 7.5 5.51667 7.73333 5.28333C7.96667 5.05 8.23889 4.93333 8.55 4.93333C8.86111 4.93333 9.13333 5.05 9.36667 5.28333C9.6 5.51667 9.71667 5.78889 9.71667 6.1C9.71667 6.41111 9.6 6.66389 9.36667 6.85833C9.13333 7.05278 8.86111 7.15 8.55 7.15ZM10.7667 15.7833V13.8C10.7667 13.6444 10.7083 13.5083 10.5917 13.3917C10.475 13.275 10.3389 13.2167 10.1833 13.2167H5.05C4.89444 13.2167 4.75833 13.275 4.64167 13.3917C4.525 13.5083 4.46667 13.6444 4.46667 13.8V15.7833C4.46667 15.9389 4.525 16.0556 4.64167 16.1333C4.75833 16.2111 4.89444 16.25 5.05 16.25H10.1833C10.3389 16.25 10.475 16.2111 10.5917 16.1333C10.7083 16.0556 10.7667 15.9389 10.7667 15.7833ZM9.71667 15.2H5.51667V14.2667H9.71667V15.2ZM32.35 4.7H29.0833C28.4611 4.7 28.0333 4.97222 27.8 5.51667H14.15V5.16667C14.15 4.93333 13.9944 4.77778 13.6833 4.7L12.4 4.46667L13.1 3.41667C13.2556 3.18333 13.2556 2.95 13.1 2.71667L11.9333 1.55C11.7 1.31667 11.4667 1.27778 11.2333 1.43333L10.1833 2.13333L9.95 0.85C9.87222 0.616667 9.67778 0.5 9.36667 0.5H7.73333C7.42222 0.5 7.26667 0.616667 7.26667 0.85L6.91667 2.13333L5.86667 1.43333C5.63333 1.27778 5.43889 1.31667 5.28333 1.55L4 2.71667C3.84444 2.95 3.84444 3.18333 4 3.41667L4.7 4.46667L3.41667 4.7C3.18333 4.77778 3.06667 4.93333 3.06667 5.16667L2.95 5.51667C2.32778 5.51667 1.76389 5.76944 1.25833 6.275C0.752778 6.78056 0.5 7.34444 0.5 7.96667V23.95C0.5 24.65 0.752778 25.2333 1.25833 25.7C1.76389 26.1667 2.32778 26.4 2.95 26.4H4.93333C5.08889 27.3333 5.51667 28.0917 6.21667 28.675C6.91667 29.2583 7.69444 29.55 8.55 29.55C9.09445 29.55 9.6 29.4333 10.0667 29.2L8.9 33.75C8.74445 34.3722 8.88056 34.8389 9.30833 35.15C9.73611 35.4611 10.2222 35.5583 10.7667 35.4417C11.3111 35.325 11.6222 34.9944 11.7 34.45L13.8 26.4H15.4333V34.1C15.4333 34.4889 15.5694 34.8194 15.8417 35.0917C16.1139 35.3639 16.4444 35.5 16.8333 35.5C17.2222 35.5 17.5528 35.3639 17.825 35.0917C18.0972 34.8194 18.2333 34.4889 18.2333 34.1V26.4H19.8667L21.9667 34.45C22.1222 34.9944 22.4528 35.325 22.9583 35.4417C23.4639 35.5583 23.9306 35.4611 24.3583 35.15C24.7861 34.8389 24.9222 34.3722 24.7667 33.75L22.9 26.4H30.7167C31.4167 26.4 32 26.1667 32.4667 25.7C32.9333 25.2333 33.1667 24.65 33.1667 23.95V12.8667C33.1667 12.7111 33.1083 12.5944 32.9917 12.5167C32.875 12.4389 32.7583 12.4 32.6417 12.4C32.525 12.4 32.4083 12.4389 32.2917 12.5167C32.175 12.5944 32.1167 12.7111 32.1167 12.8667V23.95C32.1167 24.3389 31.9806 24.6694 31.7083 24.9417C31.4361 25.2139 31.1056 25.35 30.7167 25.35H12.1667C12.0889 24.4944 11.7 23.7556 11 23.1333C10.3 22.5111 9.50278 22.2 8.60833 22.2C7.71389 22.2 6.91667 22.5111 6.21667 23.1333C5.51667 23.7556 5.08889 24.4944 4.93333 25.35H2.95C2.56111 25.35 2.23056 25.2139 1.95833 24.9417C1.68611 24.6694 1.55 24.3389 1.55 23.95V9.01667H3.88333C3.88333 9.17222 3.92222 9.28889 4 9.36667L5.28333 10.5333C5.43889 10.7667 5.63333 10.8056 5.86667 10.65L6.91667 9.95L7.26667 11.2333C7.26667 11.4667 7.42222 11.5833 7.73333 11.5833H9.36667C9.67778 11.5833 9.87222 11.4667 9.95 11.2333L10.1833 9.95L11.2333 10.65C11.4667 10.8056 11.7 10.7667 11.9333 10.5333L13.1 9.36667C13.1778 9.28889 13.2167 9.17222 13.2167 9.01667H27.45L22.6667 13.8L20.2167 11.35C19.9833 11.1944 19.7306 11.1167 19.4583 11.1167C19.1861 11.1167 18.9722 11.1944 18.8167 11.35L17.1833 12.9833C17.1056 13.0611 17.0667 13.1778 17.0667 13.3333C17.0667 13.4889 17.1056 13.6056 17.1833 13.6833C17.2611 13.7611 17.3778 13.8 17.5333 13.8C17.6889 13.8 17.8056 13.7611 17.8833 13.6833L19.5167 12.1667L21.9667 14.6167C22.1222 14.7722 22.3361 14.85 22.6083 14.85C22.8806 14.85 23.1333 14.7722 23.3667 14.6167L30.25 7.61667C30.4056 7.46111 30.4444 7.26667 30.3667 7.03333C30.2889 6.8 30.1333 6.68333 29.9 6.68333H29.0833C28.9278 6.68333 28.8111 6.60556 28.7333 6.45C28.6556 6.29444 28.6556 6.13889 28.7333 5.98333C28.8111 5.82778 28.9278 5.75 29.0833 5.75H32.35C32.5056 5.75 32.6222 5.80833 32.7 5.925C32.7778 6.04167 32.8167 6.13889 32.8167 6.21667V9.48333C32.8167 9.63889 32.7583 9.75556 32.6417 9.83333C32.525 9.91111 32.4083 9.95 32.2917 9.95C32.175 9.95 32.0778 9.91111 32 9.83333C31.9222 9.75556 31.8833 9.63889 31.8833 9.48333V8.66667C31.8833 8.43333 31.7667 8.27778 31.5333 8.2C31.3 8.12222 31.1056 8.16111 30.95 8.31667L22.6667 16.6L20.2167 14.15C19.9833 13.9944 19.7306 13.9167 19.4583 13.9167C19.1861 13.9167 18.9722 13.9944 18.8167 14.15L14.6167 18.35C14.4611 18.5056 14.2861 18.5639 14.0917 18.525C13.8972 18.4861 13.7806 18.3694 13.7417 18.175C13.7028 17.9806 13.7611 17.8444 13.9167 17.7667L16.1333 15.4333C16.2889 15.3556 16.3667 15.2389 16.3667 15.0833C16.3667 14.9278 16.3083 14.7917 16.1917 14.675C16.075 14.5583 15.9583 14.5 15.8417 14.5C15.725 14.5 15.5889 14.5778 15.4333 14.7333L13.2167 16.95C12.9056 17.2611 12.75 17.6306 12.75 18.0583C12.75 18.4861 12.9056 18.8361 13.2167 19.1083C13.5278 19.3806 13.8778 19.5167 14.2667 19.5167C14.6556 19.5167 15.0056 19.4 15.3167 19.1667L19.5167 14.9667L21.9667 17.4167C22.1222 17.5722 22.3361 17.65 22.6083 17.65C22.8806 17.65 23.1333 17.5722 23.3667 17.4167L30.8333 9.83333C30.9111 10.1444 31.0861 10.4167 31.3583 10.65C31.6306 10.8833 31.9611 11 32.35 11C32.7389 11 33.0889 10.8444 33.4 10.5333C33.7111 10.2222 33.8667 9.87222 33.8667 9.48333V6.21667C33.8667 5.82778 33.7111 5.47778 33.4 5.16667C33.0889 4.85556 32.7389 4.7 32.35 4.7ZM10.7667 34.2167C10.6889 34.45 10.5139 34.5472 10.2417 34.5083C9.96945 34.4694 9.83333 34.2944 9.83333 33.9833L11.35 28.2667C11.8167 27.7222 12.0889 27.1 12.1667 26.4H12.75L10.7667 34.2167ZM17.1833 34.1C17.1833 34.3333 17.0667 34.45 16.8333 34.45C16.6 34.45 16.4833 34.3333 16.4833 34.1V26.4H17.1833V34.1ZM23.8333 33.9833C23.9111 34.2944 23.7944 34.4694 23.4833 34.5083C23.1722 34.5472 22.9778 34.45 22.9 34.2167L20.9167 26.4H21.85L23.8333 33.9833ZM7.96667 23.3667C8.2 23.2889 8.39444 23.25 8.55 23.25C9.25 23.25 9.87222 23.5028 10.4167 24.0083C10.9611 24.5139 11.2333 25.1556 11.2333 25.9333C11.2333 26.6333 10.9611 27.2361 10.4167 27.7417C9.87222 28.2472 9.25 28.5 8.55 28.5C7.85 28.5 7.24722 28.2472 6.74167 27.7417C6.23611 27.2361 5.98333 26.6528 5.98333 25.9917C5.98333 25.3306 6.15833 24.7667 6.50833 24.3C6.85833 23.8333 7.34444 23.5222 7.96667 23.3667ZM1.55 7.96667C1.55 7.57778 1.68611 7.24722 1.95833 6.975C2.23056 6.70278 2.56111 6.56667 2.95 6.56667L3.06667 6.91667C3.06667 7.15 3.18333 7.30556 3.41667 7.38333L4.7 7.61667L4.46667 8.08333H1.55V7.96667ZM11.4667 9.6L10.5333 8.9C10.3778 8.82222 10.125 8.84167 9.775 8.95833C9.425 9.075 9.25 9.25 9.25 9.48333L9.01667 10.5333H8.08333L7.85 9.48333C7.85 9.25 7.69444 9.075 7.38333 8.95833C7.07222 8.84167 6.8 8.82222 6.56667 8.9L5.63333 9.6L5.05 8.9L5.63333 7.96667C5.78889 7.81111 5.80833 7.57778 5.69167 7.26667C5.575 6.95556 5.4 6.76111 5.16667 6.68333L4 6.45V5.63333L5.16667 5.4C5.4 5.32222 5.575 5.12778 5.69167 4.81667C5.80833 4.50556 5.78889 4.27222 5.63333 4.11667L5.05 3.18333L5.63333 2.6L6.56667 3.18333C6.8 3.26111 7.07222 3.24167 7.38333 3.125C7.69444 3.00833 7.85 2.83333 7.85 2.6L8.08333 1.55H9.01667L9.25 2.6C9.25 2.83333 9.425 3.00833 9.775 3.125C10.125 3.24167 10.3778 3.26111 10.5333 3.18333L11.4667 2.6L12.05 3.18333L11.4667 4.11667C11.3111 4.27222 11.3111 4.50556 11.4667 4.81667C11.6222 5.12778 11.7778 5.32222 11.9333 5.4L13.1 5.63333V6.45L11.9333 6.68333C11.7778 6.76111 11.6222 6.95556 11.4667 7.26667C11.3111 7.57778 11.3111 7.81111 11.4667 7.96667L12.05 8.9L11.4667 9.6ZM28.7333 7.73333L28.3833 8.08333H12.6333L12.4 7.61667L13.6833 7.38333C13.9944 7.30556 14.15 7.15 14.15 6.91667V6.56667H27.5667C27.6444 6.87778 27.7806 7.13056 27.975 7.325C28.1694 7.51944 28.4222 7.65556 28.7333 7.73333ZM29.55 21.9667H19.8667C19.7111 21.9667 19.575 22.025 19.4583 22.1417C19.3417 22.2583 19.2833 22.375 19.2833 22.4917C19.2833 22.6083 19.3417 22.725 19.4583 22.8417C19.575 22.9583 19.7111 23.0167 19.8667 23.0167H29.55C29.7056 23.0167 29.8222 22.9583 29.9 22.8417C29.9778 22.725 30.0167 22.6083 30.0167 22.4917C30.0167 22.375 29.9778 22.2583 29.9 22.1417C29.8222 22.025 29.7056 21.9667 29.55 21.9667ZM29.55 19.75H23.8333C23.6778 19.75 23.5417 19.7889 23.425 19.8667C23.3083 19.9444 23.25 20.0611 23.25 20.2167C23.25 20.3722 23.3083 20.5083 23.425 20.625C23.5417 20.7417 23.6778 20.8 23.8333 20.8H29.55C29.7056 20.8 29.8222 20.7417 29.9 20.625C29.9778 20.5083 30.0167 20.3722 30.0167 20.2167C30.0167 20.0611 29.9778 19.9444 29.9 19.8667C29.8222 19.7889 29.7056 19.75 29.55 19.75ZM5.05 17.1833C4.89444 17.1833 4.75833 17.2417 4.64167 17.3583C4.525 17.475 4.46667 17.5917 4.46667 17.7083C4.46667 17.825 4.525 17.9417 4.64167 18.0583C4.75833 18.175 4.89444 18.2333 5.05 18.2333H8.55C8.70556 18.2333 8.84167 18.175 8.95833 18.0583C9.075 17.9417 9.13333 17.825 9.13333 17.7083C9.13333 17.5917 9.075 17.475 8.95833 17.3583C8.84167 17.2417 8.70556 17.1833 8.55 17.1833H5.05ZM8.55 27.1C8.70556 27.1 8.84167 27.0611 8.95833 26.9833C9.075 26.9056 9.13333 26.7889 9.13333 26.6333V25.2333C9.13333 25.0778 9.075 24.9417 8.95833 24.825C8.84167 24.7083 8.70556 24.65 8.55 24.65C8.39444 24.65 8.27778 24.7083 8.2 24.825C8.12222 24.9417 8.08333 25.0778 8.08333 25.2333V26.6333C8.08333 26.7889 8.12222 26.9056 8.2 26.9833C8.27778 27.0611 8.39444 27.1 8.55 27.1Z" fill="white"/>
</g>
<defs>
<clipPath id="clip0_217_3907">
<rect width="35" height="35" fill="white" transform="matrix(1 0 0 -1 0.5 35.5)"/>
</clipPath>
</defs>
</svg>
