<svg width="36" height="36" viewBox="0 0 36 36" fill="none" xmlns="http://www.w3.org/2000/svg">
<g clip-path="url(#clip0_217_3912)">
<path d="M33.1833 10.0667C29.0611 8.35558 24.9778 6.60558 20.9333 4.81669C20.0778 4.50558 19.1833 4.35003 18.25 4.35003C17.3167 4.35003 16.4222 4.50558 15.5667 4.81669L3.31667 10.0667C2.53889 10.4556 1.91667 10.9806 1.45 11.6417C0.983333 12.3028 0.75 13.0611 0.75 13.9167C0.75 14.7722 0.983333 15.5306 1.45 16.1917C1.91667 16.8528 2.53889 17.3389 3.31667 17.65L6.23333 18.9334V27.5667C6.23333 28.7334 6.62222 29.7056 7.4 30.4834C8.17778 31.2611 9.15 31.65 10.3167 31.65H26.1833C27.35 31.65 28.3222 31.2611 29.1 30.4834C29.8778 29.7056 30.2667 28.7334 30.2667 27.5667V23.95C30.2667 23.5611 30.1306 23.2306 29.8583 22.9584C29.5861 22.6861 29.275 22.55 28.925 22.55C28.575 22.55 28.2639 22.6861 27.9917 22.9584C27.7194 23.2306 27.5833 23.5611 27.5833 23.95V27.5667C27.5833 27.9556 27.4472 28.2861 27.175 28.5584C26.9028 28.8306 26.5722 28.9667 26.1833 28.9667H10.3167C9.92778 28.9667 9.59722 28.8306 9.325 28.5584C9.05278 28.2861 8.91667 27.9556 8.91667 27.5667V20.1L15.5667 22.9C16.4222 23.2889 17.3167 23.4834 18.25 23.4834C19.1833 23.4834 20.0778 23.2889 20.9333 22.9L33.1833 17.65C33.9611 17.3389 34.5833 16.8528 35.05 16.1917C35.5167 15.5306 35.75 14.7722 35.75 13.9167C35.75 13.0611 35.5167 12.3028 35.05 11.6417C34.5833 10.9806 33.9611 10.4556 33.1833 10.0667ZM32.1333 15.2C28.0111 16.9111 23.8889 18.6611 19.7667 20.45C19.3 20.6056 18.7944 20.6834 18.25 20.6834C17.7056 20.6834 17.2 20.6056 16.7333 20.45L4.36667 15.2C4.05556 15.0445 3.82222 14.85 3.66667 14.6167C3.51111 14.3834 3.43333 14.1306 3.43333 13.8584C3.43333 13.5861 3.51111 13.3334 3.66667 13.1C3.82222 12.8667 4.05556 12.7111 4.36667 12.6334L16.7333 7.38336C17.2 7.15003 17.7056 7.03336 18.25 7.03336C18.7944 7.03336 19.3 7.15003 19.7667 7.38336L32.1333 12.6334C32.4444 12.7111 32.6778 12.8667 32.8333 13.1C32.9889 13.3334 33.0667 13.5861 33.0667 13.8584C33.0667 14.1306 32.9889 14.3834 32.8333 14.6167C32.6778 14.85 32.4444 15.0445 32.1333 15.2ZM34.35 20.2167C33.9611 20.2167 33.65 20.3528 33.4167 20.625C33.1833 20.8972 33.0667 21.2278 33.0667 21.6167V27.5667C33.0667 27.9556 33.1833 28.2861 33.4167 28.5584C33.65 28.8306 33.9611 28.9667 34.35 28.9667C34.7389 28.9667 35.0694 28.8306 35.3417 28.5584C35.6139 28.2861 35.75 27.9556 35.75 27.5667V21.6167C35.75 21.2278 35.6139 20.8972 35.3417 20.625C35.0694 20.3528 34.7389 20.2167 34.35 20.2167Z" fill="white"/>
</g>
<defs>
<clipPath id="clip0_217_3912">
<rect width="35" height="35" fill="white" transform="matrix(1 0 0 -1 0.75 35.5)"/>
</clipPath>
</defs>
</svg>
