<svg width="70" height="71" viewBox="0 0 70 71" fill="none" xmlns="http://www.w3.org/2000/svg">
<rect x="0.5" y="1.09961" width="69" height="69" rx="34.5" stroke="#D3363B"/>
<path d="M41.8066 28.793H43.5V30.4863H41.8066V28.793ZM41.8066 32.2129H43.5V33.9062H41.8066V32.2129ZM41.8066 35.5996H43.5V37.293H41.8066V35.5996ZM41.8066 38.9863H43.5V40.7129H41.8066V38.9863ZM41.8066 45.793H43.5V47.4863H41.8066V45.793ZM41.8066 42.4062H43.5V44.0996H41.8066V42.4062ZM28.1934 28.793H29.8867V30.4863H28.1934V28.793ZM28.1934 32.2129H29.8867V33.9062H28.1934V32.2129ZM28.1934 35.5996H29.8867V37.293H28.1934V35.5996ZM28.1934 38.9863H29.8867V40.7129H28.1934V38.9863ZM28.1934 45.793H29.8867V47.4863H28.1934V45.793ZM28.1934 42.4062H29.8867V44.0996H28.1934V42.4062ZM24.8066 28.793H26.5V30.4863H24.8066V28.793ZM24.8066 32.2129H26.5V33.9062H24.8066V32.2129ZM24.8066 35.5996H26.5V37.293H24.8066V35.5996ZM24.8066 38.9863H26.5V40.7129H24.8066V38.9863ZM24.8066 45.793H26.5V47.4863H24.8066V45.793ZM24.8066 42.4062H26.5V44.0996H24.8066V42.4062ZM31.6133 28.793H33.3066V30.4863H31.6133V28.793ZM31.6133 32.2129H33.3066V33.9062H31.6133V32.2129ZM31.6133 35.5996H33.3066V37.293H31.6133V35.5996ZM31.6133 38.9863H33.3066V40.7129H31.6133V38.9863ZM31.6133 45.793H33.3066V47.4863H31.6133V45.793ZM31.6133 42.4062H33.3066V44.0996H31.6133V42.4062ZM49.4434 50.9062H48.6133V27.9629C48.6133 27.2988 48.3975 26.6735 47.9658 26.0869C47.5342 25.5003 47.0195 25.1074 46.4219 24.9082L38.3867 22.252V19.4629C38.3867 19.3301 38.359 19.2028 38.3037 19.0811C38.2484 18.9593 38.1654 18.8542 38.0547 18.7656C37.944 18.6771 37.8223 18.6217 37.6895 18.5996C37.5566 18.5775 37.4238 18.5885 37.291 18.6328L21.918 23.248C21.2982 23.4251 20.7725 23.807 20.3408 24.3936C19.9092 24.9801 19.6934 25.5944 19.6934 26.2363V50.9062H18.8633C18.6198 50.9062 18.415 50.9893 18.249 51.1553C18.083 51.3213 18 51.515 18 51.7363C18 51.9798 18.083 52.1846 18.249 52.3506C18.415 52.5166 18.6198 52.5996 18.8633 52.5996H49.4434C49.6868 52.5996 49.8916 52.5166 50.0576 52.3506C50.2236 52.1846 50.3066 51.9798 50.3066 51.7363C50.3066 51.515 50.2236 51.3213 50.0576 51.1553C49.8916 50.9893 49.6868 50.9062 49.4434 50.9062ZM45.8574 26.502C46.1452 26.6126 46.3887 26.8118 46.5879 27.0996C46.7871 27.3874 46.8867 27.6751 46.8867 27.9629V50.9062H38.3867V24.0449L45.8574 26.502ZM21.3867 26.2363C21.3867 25.9707 21.4919 25.6995 21.7021 25.4229C21.9124 25.1462 22.1504 24.9635 22.416 24.875L36.6934 20.5918V50.9062H21.3867V26.2363Z" fill="#D3363B"/>
</svg>
