<svg width="70" height="71" viewBox="0 0 70 71" fill="none" xmlns="http://www.w3.org/2000/svg">
<rect x="0.5" y="1.09961" width="69" height="69" rx="34.5" stroke="#D3363B"/>
<path d="M35 25.8047C34.0039 25.8047 33.0742 25.9928 32.2109 26.3691C31.3477 26.7454 30.5951 27.2546 29.9531 27.8965C29.3112 28.5384 28.8021 29.291 28.4258 30.1543C28.0495 31.0176 27.8613 31.9362 27.8613 32.9102C27.8613 33.8841 28.0495 34.8027 28.4258 35.666C28.8021 36.5293 29.3112 37.2874 29.9531 37.9404C30.5951 38.5934 31.3477 39.097 32.2109 39.4512C33.0742 39.8275 34.0039 40.0156 35 40.0156C35.974 40.0156 36.8926 39.8385 37.7559 39.4844C38.6191 39.1081 39.3717 38.5934 40.0137 37.9404C40.6556 37.2874 41.1647 36.5293 41.541 35.666C41.9173 34.8027 42.1055 33.8841 42.1055 32.9102C42.1055 31.9362 41.9173 31.0176 41.541 30.1543C41.1647 29.291 40.6556 28.5384 40.0137 27.8965C39.3717 27.2546 38.6191 26.7454 37.7559 26.3691C36.8926 25.9928 35.974 25.8047 35 25.8047ZM35 38.3223C33.4948 38.3223 32.2165 37.791 31.165 36.7285C30.1136 35.666 29.5879 34.3932 29.5879 32.9102C29.5879 31.4271 30.1136 30.1543 31.165 29.0918C32.2165 28.0293 33.4948 27.498 35 27.498C36.4831 27.498 37.7503 28.0293 38.8018 29.0918C39.8532 30.1543 40.3789 31.4271 40.3789 32.9102C40.3789 34.3932 39.8532 35.666 38.8018 36.7285C37.7503 37.791 36.4831 38.3223 35 38.3223ZM35 19.0312C34.9115 19.0312 34.8285 19.0312 34.751 19.0312C34.6735 19.0312 34.5905 19.0312 34.502 19.0312C32.7975 19.0977 31.1816 19.4518 29.6543 20.0938C28.127 20.7578 26.7712 21.6432 25.5869 22.75C24.4027 23.8568 23.4342 25.1517 22.6816 26.6348C21.929 28.1178 21.4753 29.7116 21.3203 31.416C21.2539 32.0801 21.2373 32.7441 21.2705 33.4082C21.3037 34.0723 21.3757 34.7142 21.4863 35.334C21.4863 35.334 21.4974 35.3727 21.5195 35.4502C21.5417 35.5277 21.5638 35.6439 21.5859 35.7988C21.6966 36.2637 21.8294 36.723 21.9844 37.1768C22.1393 37.6305 22.3164 38.0677 22.5156 38.4883C22.8698 39.3294 23.3346 40.2702 23.9102 41.3105C24.5078 42.373 25.2549 43.502 26.1514 44.6973C27.0479 45.8926 28.1159 47.1543 29.3555 48.4824C30.5951 49.8105 32.056 51.1719 33.7383 52.5664C33.9154 52.7214 34.1146 52.8376 34.3359 52.915C34.5573 52.9925 34.7786 53.0312 35 53.0312C35.2435 53.0312 35.4704 52.9925 35.6807 52.915C35.891 52.8376 36.0846 52.7214 36.2617 52.5664C37.944 51.1719 39.4049 49.8105 40.6445 48.4824C41.9062 47.1543 42.9798 45.8926 43.8652 44.6973C44.7507 43.502 45.4922 42.3841 46.0898 41.3438C46.6654 40.3034 47.1302 39.3626 47.4844 38.5215C47.6836 38.0788 47.8607 37.6305 48.0156 37.1768C48.1706 36.723 48.3034 36.2637 48.4141 35.7988C48.4362 35.7103 48.4528 35.6328 48.4639 35.5664C48.4749 35.5 48.4915 35.4336 48.5137 35.3672C48.5801 34.9245 48.6354 34.4873 48.6797 34.0557C48.724 33.624 48.7461 33.1868 48.7461 32.7441C48.7461 30.8626 48.3809 29.0918 47.6504 27.4316C46.9199 25.7493 45.9349 24.2884 44.6953 23.0488C43.4557 21.8092 42.0059 20.8242 40.3457 20.0938C38.6634 19.3854 36.8815 19.0312 35 19.0312ZM46.7871 35.0684C46.7871 35.0684 46.7816 35.1016 46.7705 35.168C46.7594 35.2344 46.7428 35.3118 46.7207 35.4004C46.6322 35.821 46.5215 36.2305 46.3887 36.6289C46.2559 37.0273 46.1009 37.4258 45.9238 37.8242C45.5697 38.6211 45.1159 39.5176 44.5625 40.5137C44.0091 41.5098 43.3063 42.5778 42.4541 43.7178C41.6019 44.8577 40.5781 46.0697 39.3828 47.3535C38.1875 48.6152 36.7819 49.9102 35.166 51.2383C35.1439 51.2604 35.1162 51.277 35.083 51.2881C35.0498 51.2992 35.0221 51.3047 35 51.3047C34.9779 51.3047 34.9502 51.2992 34.917 51.2881C34.8838 51.277 34.8561 51.2604 34.834 51.2383C33.2181 49.9102 31.8125 48.6152 30.6172 47.3535C29.4219 46.0697 28.3926 44.8577 27.5293 43.7178C26.666 42.5778 25.9577 41.5098 25.4043 40.5137C24.8509 39.4954 24.4082 38.5879 24.0762 37.791C23.8991 37.4147 23.7441 37.0273 23.6113 36.6289C23.4785 36.2305 23.3568 35.821 23.2461 35.4004C23.224 35.3118 23.2074 35.2399 23.1963 35.1846C23.1852 35.1292 23.1797 35.1016 23.1797 35.1016C23.1797 35.0794 23.1797 35.0684 23.1797 35.0684C23.1797 35.0684 23.1797 35.0573 23.1797 35.0352C23.069 34.4818 23.0026 33.9118 22.9805 33.3252C22.9583 32.7386 22.9694 32.1576 23.0137 31.582C23.1686 30.099 23.5671 28.7044 24.209 27.3984C24.873 26.0924 25.7197 24.958 26.749 23.9951C27.7783 23.0322 28.9681 22.263 30.3184 21.6875C31.6465 21.112 33.0632 20.791 34.5684 20.7246C36.2728 20.6803 37.8776 20.957 39.3828 21.5547C40.9102 22.1745 42.2383 23.0322 43.3672 24.1279C44.4961 25.2236 45.3815 26.513 46.0234 27.9961C46.6875 29.4792 47.0195 31.0729 47.0195 32.7773C47.0195 33.1536 47.0029 33.5299 46.9697 33.9062C46.9365 34.2826 46.8757 34.6699 46.7871 35.0684Z" fill="#D3363B"/>
</svg>
